<svg id="Layer_1" data-name="Layer 1" xmlns="http://www.w3.org/2000/svg" viewBox="0 0 1000 460.292">
  <defs>
    <style>
      .cls-1 {
        fill: #0067a6;
      }
    </style>
  </defs>
  <title>Essex Dem Co - Logo 2017</title>
  <g>
    <g>
      <g>
        <path class="cls-1" d="M598.5293,123.52686v25.30431H510.84474V24.06926h86.10357V49.37357H539.66338V73.62294h49.20133V96.99321H539.66338v26.53365Z"/>
        <path class="cls-1" d="M649.13721,150.588a73.441,73.441,0,0,1-23.19515-3.77806,52.89959,52.89959,0,0,1-19.32917-10.98255l10.01623-17.22071a83.25774,83.25774,0,0,0,16.42952,8.9627,41.73462,41.73462,0,0,0,15.376,3.162q5.44451,0,8.43454-1.93263a6.28539,6.28539,0,0,0,2.98686-5.62209q0-3.69015-3.77736-5.88792-3.78087-2.19426-13.26753-4.65577-9.315-2.63523-15.72693-5.096a44.20509,44.20509,0,0,1-10.45508-5.44767,17.63813,17.63813,0,0,1-5.79861-6.85284,21.90444,21.90444,0,0,1-1.75752-9.13712,28.72856,28.72856,0,0,1,10.543-22.66838,36.71392,36.71392,0,0,1,11.68583-6.32608,45.6279,45.6279,0,0,1,14.6727-2.28428,65.17275,65.17275,0,0,1,19.41708,2.81175,48.569,48.569,0,0,1,17.48445,10.19135L671.98141,84.6927a74.48213,74.48213,0,0,0-14.058-7.90637,32.0817,32.0817,0,0,0-11.94887-2.4601,15.11149,15.11149,0,0,0-7.73195,1.844,6.83093,6.83093,0,0,0,.26374,11.68584q3.42642,1.93475,12.74006,4.21691a162.58111,162.58111,0,0,1,16.60534,5.27185,44.4825,44.4825,0,0,1,10.98254,5.88652,19.98389,19.98389,0,0,1,6.15026,7.46892,23.88041,23.88041,0,0,1,1.93263,10.01623q0,13.70568-10.19134,21.78927Q666.532,150.58869,649.13721,150.588Z"/>
        <path class="cls-1" d="M736.82106,150.588a73.441,73.441,0,0,1-23.19514-3.77806,52.89942,52.89942,0,0,1-19.32917-10.98255L704.313,118.60666a83.25768,83.25768,0,0,0,16.42951,8.9627,41.73471,41.73471,0,0,0,15.376,3.162q5.44451,0,8.43453-1.93263a6.28538,6.28538,0,0,0,2.98687-5.62209q0-3.69015-3.77736-5.88792-3.78088-2.19426-13.26753-4.65577-9.31506-2.63523-15.72693-5.096a44.20509,44.20509,0,0,1-10.45508-5.44767,17.638,17.638,0,0,1-5.79861-6.85284,21.90428,21.90428,0,0,1-1.75752-9.13712,28.72851,28.72851,0,0,1,10.543-22.66838,36.71408,36.71408,0,0,1,11.68584-6.32608,45.62786,45.62786,0,0,1,14.6727-2.28428,65.17279,65.17279,0,0,1,19.41708,2.81175,48.5692,48.5692,0,0,1,17.48445,10.19135L759.66527,84.6927a74.48217,74.48217,0,0,0-14.058-7.90637,32.08169,32.08169,0,0,0-11.94886-2.4601,15.11149,15.11149,0,0,0-7.73195,1.844,6.83092,6.83092,0,0,0,.26373,11.68584q3.42642,1.93475,12.74007,4.21691a162.58165,162.58165,0,0,1,16.60533,5.27185,44.48258,44.48258,0,0,1,10.98255,5.88652,19.98377,19.98377,0,0,1,6.15025,7.46892,23.88041,23.88041,0,0,1,1.93264,10.01623q0,13.70568-10.19135,21.78927Q754.21585,150.58869,736.82106,150.588Z"/>
        <path class="cls-1" d="M832.23617,150.588a54.53235,54.53235,0,0,1-20.823-3.77806,46.25843,46.25843,0,0,1-15.639-10.27926A43.96231,43.96231,0,0,1,786.0217,121.507a48.4388,48.4388,0,0,1-3.33851-17.83539,53.177,53.177,0,0,1,3.33851-18.89032,45.80552,45.80552,0,0,1,9.66458-15.55181,45.13548,45.13548,0,0,1,15.55111-10.543,53.93507,53.93507,0,0,1,20.99878-3.866,53.29455,53.29455,0,0,1,20.91086,3.866,45.96426,45.96426,0,0,1,15.4632,10.45508,44.36646,44.36646,0,0,1,9.57667,15.19946,50.83214,50.83214,0,0,1,3.25131,18.09983q0,2.4622-.17583,4.833a34.504,34.504,0,0,1-.52746,4.1283H812.55535q.70047,9.31716,6.76563,14.14594a21.51458,21.51458,0,0,0,13.79359,4.833,25.25636,25.25636,0,0,0,11.861-2.98757,15.25124,15.25124,0,0,0,7.644-8.08359l23.89843,6.677a43.00069,43.00069,0,0,1-16.86977,17.74818Q848.22437,150.588,832.23617,150.588Zm19.505-56.58234q-.88193-8.78337-6.32608-13.8815a19.05912,19.05912,0,0,0-13.53056-5.096A18.7893,18.7893,0,0,0,818.266,80.21275q-5.36221,5.18394-6.23816,13.79289Z"/>
        <path class="cls-1" d="M910.43056,56.57805,927.1238,82.58424l1.75752,3.33921,1.75752-3.33921,16.51742-26.00619H975.9742l-31.98062,46.21447,32.68391,46.03865H947.85885L930.463,123.0008l-1.58169-3.33921-1.5817,3.33921-17.39583,25.83037H881.08515l32.68391-46.03865L881.78844,56.57805Z"/>
      </g>
      <g>
        <path class="cls-1" d="M510.84474,370.97127a62.97188,62.97188,0,0,1,4.21762-22.404,61.10533,61.10533,0,0,1,12.30051-19.94525A62.50757,62.50757,0,0,1,547.043,314.38892a61.3299,61.3299,0,0,1,26.35854-5.44767q17.56884,0,30.48754,7.55613a48.88291,48.88291,0,0,1,19.24126,19.68081l-22.14092,15.4639a25.77151,25.77151,0,0,0-5.35906-8.1708A29.2561,29.2561,0,0,0,580.606,335.3877a41.13774,41.13774,0,0,0-7.90777-.7905,29.74876,29.74876,0,0,0-14.409,3.33921,31.686,31.686,0,0,0-10.19135,8.60966,35.75826,35.75826,0,0,0-5.97513,11.94886,48.39194,48.39194,0,0,0-1.93264,13.53127,44.67892,44.67892,0,0,0,2.28428,14.23314,37.86655,37.86655,0,0,0,6.58981,12.12469,31.813,31.813,0,0,0,10.36717,8.34662,29.66194,29.66194,0,0,0,13.61847,3.07478,34.99694,34.99694,0,0,0,7.99568-.96632,32.24334,32.24334,0,0,0,7.90707-2.98757,28.1756,28.1756,0,0,0,6.94075-5.27184,24.63859,24.63859,0,0,0,5.096-7.995l23.54679,13.8815a36.6524,36.6524,0,0,1-8.34662,12.30051,51.46632,51.46632,0,0,1-12.74007,9.13852,69.98231,69.98231,0,0,1-31.10221,7.55613,55.87741,55.87741,0,0,1-24.86476-5.53628,62.89375,62.89375,0,0,1-19.505-14.672,67.12535,67.12535,0,0,1-12.65215-20.73575A64.8421,64.8421,0,0,1,510.84474,370.97127Z"/>
        <path class="cls-1" d="M680.589,436.16326a53.93768,53.93768,0,0,1-20.99878-3.86527,45.71512,45.71512,0,0,1-15.55111-10.45508,44.12737,44.12737,0,0,1-9.57667-15.28808,52.5033,52.5033,0,0,1,0-36.37406,44.11453,44.11453,0,0,1,9.57667-15.28808A46.79947,46.79947,0,0,1,659.59018,344.349a52.85,52.85,0,0,1,20.99878-3.95248,52.22165,52.22165,0,0,1,20.91086,3.95248,47.02824,47.02824,0,0,1,15.4632,10.54369,45.24559,45.24559,0,0,1,9.66459,15.28808,50.33991,50.33991,0,0,1,3.33921,18.187,51.53913,51.53913,0,0,1-3.2513,18.187,44.16881,44.16881,0,0,1-9.57668,15.28808,45.70817,45.70817,0,0,1-15.5511,10.45508A53.94511,53.94511,0,0,1,680.589,436.16326ZM660.02974,388.3678q0,10.89746,5.79861,17.48374a18.79515,18.79515,0,0,0,14.76061,6.58981,18.55823,18.55823,0,0,0,8.08289-1.75681,19.39338,19.39338,0,0,0,6.414-4.9202,23.62523,23.62523,0,0,0,4.30553-7.64475,29.10679,29.10679,0,0,0,1.581-9.75179q0-10.89322-5.79861-17.48374a18.604,18.604,0,0,0-14.58479-6.58981,19.08535,19.08535,0,0,0-14.6727,6.677,23.59243,23.59243,0,0,0-4.30483,7.64333A29.09762,29.09762,0,0,0,660.02974,388.3678Z"/>
        <path class="cls-1" d="M743.66968,436.16326V407.52115H766.689v28.64211Z"/>
      </g>
      <g>
        <path class="cls-1" d="M510.84474,291.99836V167.23645h46.56611q15.46109,0,27.06112,4.92021a54.434,54.434,0,0,1,31.19013,33.12346,72.84354,72.84354,0,0,1,3.95389,24.16217,71.75757,71.75757,0,0,1-4.39274,25.74316A55.35311,55.35311,0,0,1,602.659,274.86626,56.3624,56.3624,0,0,1,582.97819,287.517a69.94362,69.94362,0,0,1-25.56734,4.48135Zm79.42584-62.55607a48.50752,48.50752,0,0,0-2.19636-15.02505,33.76649,33.76649,0,0,0-6.414-11.68443,27.96591,27.96591,0,0,0-10.36717-7.55613,34.91411,34.91411,0,0,0-13.88221-2.63592H539.66338v74.15329h17.74747a33.46429,33.46429,0,0,0,14.058-2.81033,28.44425,28.44425,0,0,0,10.27926-7.82057,35.58849,35.58849,0,0,0,6.32608-11.773A47.87424,47.87424,0,0,0,590.27058,229.44229Z"/>
        <path class="cls-1" d="M678.4805,293.75518a54.53235,54.53235,0,0,1-20.823-3.77807,46.25829,46.25829,0,0,1-15.639-10.27926,43.96225,43.96225,0,0,1-9.7525-15.02364,48.43876,48.43876,0,0,1-3.33851-17.83539A53.177,53.177,0,0,1,632.266,227.9485a45.7959,45.7959,0,0,1,9.66459-15.5511,45.1177,45.1177,0,0,1,15.5511-10.5437,53.93521,53.93521,0,0,1,20.99878-3.86527,53.29474,53.29474,0,0,1,20.91087,3.86527,45.96436,45.96436,0,0,1,15.46319,10.45508,44.36643,44.36643,0,0,1,9.57668,15.19947,50.83208,50.83208,0,0,1,3.2513,18.09982q0,2.4622-.17582,4.833a34.50617,34.50617,0,0,1-.52747,4.1283H658.79968q.70048,9.31716,6.76564,14.14593a21.51448,21.51448,0,0,0,13.79359,4.833,25.25635,25.25635,0,0,0,11.861-2.98757,15.25117,15.25117,0,0,0,7.644-8.08359l23.89843,6.677a43.00075,43.00075,0,0,1-16.86977,17.74818Q694.4687,293.75518,678.4805,293.75518Zm19.505-56.58235q-.88192-8.78337-6.32607-13.8815a19.05915,19.05915,0,0,0-13.53056-5.096,18.78932,18.78932,0,0,0-13.61848,5.18464q-5.36222,5.18394-6.23816,13.79289Z"/>
        <path class="cls-1" d="M886.3563,291.99836H858.241v-51.838q0-9.13361-3.33921-13.26683a10.57577,10.57577,0,0,0-8.61036-4.12971,14.56969,14.56969,0,0,0-5.7107,1.23076,19.44351,19.44351,0,0,0-5.35976,3.42642,27.68483,27.68483,0,0,0-4.48065,5.18323,28.067,28.067,0,0,0-3.2506,6.5026v52.89149H799.37432v-51.838q0-9.13361-3.3385-13.26683a10.57766,10.57766,0,0,0-8.61036-4.12971q-5.626,0-10.98255,4.48136a25.59126,25.59126,0,0,0-7.81986,11.86165v52.89149H740.5077V199.74524h25.3036v15.4625a33.46427,33.46427,0,0,1,13.7943-12.82657,44.48293,44.48293,0,0,1,20.29549-4.39274,32.64969,32.64969,0,0,1,10.10414,1.40517,24.44326,24.44326,0,0,1,7.46822,3.86527,20.5301,20.5301,0,0,1,5.096,5.71211,24.8026,24.8026,0,0,1,2.81175,6.94,36.34983,36.34983,0,0,1,13.8815-13.26682,40.72448,40.72448,0,0,1,19.68081-4.65577q8.78442,0,14.14524,3.2506a23.54816,23.54816,0,0,1,8.34733,8.43383,32.69338,32.69338,0,0,1,3.95318,11.33419,77.15119,77.15119,0,0,1,.967,11.94887Z"/>
      </g>
    </g>
    <g>
      <path class="cls-1" d="M355.21025,180.06632a381.06008,381.06008,0,0,0-40.73677-4.53874q-16.86567-.95685-33.81352-.46132-9.49386.26355-18.98034.95437a432.80927,432.80927,0,0,0-155.55707,41.82552c-6.576-16.7463-9.46353-34.26143,2.26767-53.648l-.29717.05562C91.66223,167.37876,78.521,180.94645,84.954,198.549c2.3564,7.8661,5.86139,15.80073,9.37508,23.86788l-1.2575.60832L82.891,227.94981l-2.66392,1.28773-9.29646,4.49575-1.9053.92286-9.99951,4.83676-2.49,1.20543-6.34729,3.06932-.22335.10749-4.36449,2.11194a15.10874,15.10874,0,1,0,8.10983,17.80121c.84755-.456,1.726-.91843,2.667-1.39361.37159-.19021.754-.379,1.13927-.56831,2.79123-1.38113,5.89814-2.817,9.16741-4.26417.72035-.32111,1.445-.63807,2.18176-.95868,2.30807-1.00517,4.67148-2.00634,7.04439-2.99112,1.38578-.57771,2.77335-1.14909,4.15121-1.70915,2.92351-1.18974,5.79664-2.3318,8.53015-3.4017q2.23128-.87674,4.30379-1.67423c3.30848-1.27555,6.26845-2.3943,8.6461-3.28113.35392-.13238.67272-.251.99806-.3721,5.424,16.6817,7.03983,34.13293-4.32574,52.91637l.29565-.056c16.43235-3.1246,32.32558-18.263,25.8927-35.86557a151.2124,151.2124,0,0,0-8.65107-21.116,382.14421,382.14421,0,0,1,144.17-15.51971c2.11719.17888,4.23071.35153,6.37623.56856,4.31209.73077,8.43534,1.49317,12.46633,2.27044,12.44558,2.39585,23.61935,4.9835,33.54756,7.65667,8.22519,2.21188,15.61412,4.47579,22.25559,6.72463a17.376,17.376,0,1,1,26.49577,10.45409c18.91868,8.70827,25.93747,15.10512,26.37468,13.74986.19276.18689,4.92036-14.11251,29.33468-29.55686,24.66415-15.733,46.01124-12.46179,45.93387-12.20542C425.77391,201.023,397.06833,187.02042,355.21025,180.06632Z"/>
      <path class="cls-1" d="M355.21025,39.93747a381.06006,381.06006,0,0,0-40.73677-4.53873q-16.86567-.95687-33.81352-.46132-9.49386.26355-18.98034.95436A432.80947,432.80947,0,0,0,106.12255,77.7173c-6.576-16.74629-9.46353-34.26142,2.26767-53.648l-.29717.05561C91.66223,27.24991,78.521,40.8176,84.954,58.42015c2.3564,7.86609,5.86139,15.80073,9.37508,23.86788l-1.2575.60832L82.891,87.821l-2.66392,1.28772L70.9306,93.60445l-1.9053.92286-9.99951,4.83676-2.49,1.20543-6.34729,3.06932-.22335.10748-4.36449,2.11195a15.10874,15.10874,0,1,0,8.10983,17.80121c.84755-.456,1.726-.91843,2.667-1.39361.37159-.19021.754-.37905,1.13927-.56832,2.79123-1.38113,5.89814-2.817,9.16741-4.26416.72035-.32111,1.445-.63808,2.18176-.95868,2.30807-1.00517,4.67148-2.00635,7.04439-2.99113,1.38578-.5777,2.77335-1.14908,4.15121-1.70915,2.92351-1.18973,5.79664-2.33179,8.53015-3.40169q2.23128-.87674,4.30379-1.67423c3.30848-1.27555,6.26845-2.39431,8.6461-3.28113.35392-.13239.67272-.251.99806-.37211,5.424,16.6817,7.03983,34.13293-4.32574,52.91638l.29565-.05606c16.43235-3.1246,32.32558-18.263,25.8927-35.86557a151.2124,151.2124,0,0,0-8.65107-21.116,382.14443,382.14443,0,0,1,144.17-15.51971c2.11719.17888,4.23071.35154,6.37623.56857,4.31209.73077,8.43534,1.49316,12.46633,2.27044,12.44558,2.39585,23.61935,4.9835,33.54756,7.65667,8.22519,2.21187,15.61412,4.47579,22.25559,6.72462a17.376,17.376,0,1,1,26.49577,10.45409c18.91868,8.70828,25.93747,15.10512,26.37468,13.74987.19276.18689,4.92036-14.11251,29.33468-29.55687,24.66415-15.733,46.01124-12.46178,45.93387-12.20541C425.77391,60.89411,397.06833,46.89157,355.21025,39.93747Z"/>
      <path class="cls-1" d="M355.21025,320.19516a381.06006,381.06006,0,0,0-40.73677-4.53873q-16.86567-.95686-33.81352-.46132-9.49386.26355-18.98034.95436A432.80947,432.80947,0,0,0,106.12255,357.975c-6.576-16.74629-9.46353-34.26142,2.26767-53.648l-.29717.05561C91.66223,307.5076,78.521,321.07529,84.954,338.67784c2.3564,7.86609,5.86139,15.80073,9.37508,23.86788l-1.2575.60832L82.891,368.07866l-2.66392,1.28772-9.29646,4.49576-1.9053.92286-9.99951,4.83676-2.49,1.20543-6.34729,3.06932-.22335.10748-4.36449,2.112a15.10874,15.10874,0,1,0,8.10983,17.80121c.84755-.456,1.726-.91843,2.667-1.39361.37159-.19022.754-.37905,1.13927-.56832,2.79123-1.38113,5.89814-2.817,9.16741-4.26416.72035-.32111,1.445-.63808,2.18176-.95869,2.30807-1.00516,4.67148-2.00634,7.04439-2.99112,1.38578-.57771,2.77335-1.14908,4.15121-1.70915,2.92351-1.18974,5.79664-2.33179,8.53015-3.40169q2.23128-.87673,4.30379-1.67424c3.30848-1.27554,6.26845-2.3943,8.6461-3.28112.35392-.13239.67272-.251.99806-.37211,5.424,16.6817,7.03983,34.13293-4.32574,52.91637l.29565-.05605c16.43235-3.1246,32.32558-18.263,25.8927-35.86557a151.2124,151.2124,0,0,0-8.65107-21.11595,382.14443,382.14443,0,0,1,144.17-15.51971c2.11719.17888,4.23071.35154,6.37623.56857,4.31209.73077,8.43534,1.49316,12.46633,2.27044,12.44558,2.39585,23.61935,4.9835,33.54756,7.65667,8.22519,2.21187,15.61412,4.47579,22.25559,6.72462a17.376,17.376,0,1,1,26.49577,10.45409c18.91868,8.70828,25.93747,15.10512,26.37468,13.74987.19276.18689,4.92036-14.11251,29.33468-29.55687,24.66415-15.733,46.01124-12.46178,45.93387-12.20541C425.77391,341.1518,397.06833,327.14926,355.21025,320.19516Z"/>
    </g>
  </g>
</svg>
